<svg id="google" xmlns="http://www.w3.org/2000/svg" width="50" height="50" viewBox="0 0 50 50">
  <defs>
    <style>
      .cls-1 {
        fill: #fbbb00;
      }

      .cls-2 {
        fill: #518ef8;
      }

      .cls-3 {
        fill: #28b446;
      }

      .cls-4 {
        fill: #f14336;
      }
    </style>
  </defs>
  <title>google</title>
  <path class="cls-1" d="M11.081,30.216l-1.74,6.5-6.362.134A25.045,25.045,0,0,1,2.8,13.5h0L8.46,14.541l2.481,5.629a14.928,14.928,0,0,0,.14,10.046Z"/>
  <path class="cls-2" d="M49.563,20.33A24.991,24.991,0,0,1,40.651,44.5h0l-7.133-.364-1.01-6.3a14.9,14.9,0,0,0,6.411-7.608H25.55V20.33H49.563Z"/>
  <path class="cls-3" d="M40.65,44.5h0A25.009,25.009,0,0,1,2.979,36.848l8.1-6.632a14.869,14.869,0,0,0,21.426,7.612Z"/>
  <path class="cls-4" d="M40.957,5.755l-8.1,6.631A14.867,14.867,0,0,0,10.941,20.17L2.8,13.5h0A25.006,25.006,0,0,1,40.957,5.755Z"/>
</svg>
